<?xml version="1.0" encoding="UTF-8"?>
<svg id="Layer_1" data-name="Layer 1" xmlns="http://www.w3.org/2000/svg" version="1.1" viewBox="0 0 600 160">
  <defs>
    <style>
      .cls-1 {
        fill: #ff8813;
      }

      .cls-1, .cls-2, .cls-3 {
        stroke-width: 0px;
      }

      .cls-2 {
        fill: #183eb3;
      }

      .cls-3 {
        fill: #fff;
      }
    </style>
  </defs>
  <g>
    <ellipse id="Ellipse_5" data-name="Ellipse 5" class="cls-1" cx="83.2" cy="80" rx="83.2" ry="80"/>
    <g id="Group_66" data-name="Group 66">
      <path id="Path_29" data-name="Path 29" class="cls-3" d="M123.8,34.2c.8,0,1.5.3,2,.8.4.8.4,1.7,0,2.4l-32.2,57.1,20.4,37.5c.4.8.4,1.7,0,2.5-.6.5-1.3.8-2,.8h-14.7c-1.8-.2-3.3-1.3-4.1-2.9l-20.8-37.9c1.2-1.6,32.6-57.5,32.6-57.5.6-1.7,2.3-2.8,4.1-2.9h14.6ZM62.6,54.1c1.8.2,3.3,1.3,4.1,2.9l10.2,17.5c-.8.8-15.9,27.7-15.9,27.7-.8,1.6-2.3,2.7-4.1,2.9h-14.3c-.8,0-1.5-.3-2-.8-.4-.8-.4-1.7,0-2.4l15.1-27.3-9.8-17.1c-.4-.8-.4-1.7,0-2.4.6-.5,1.3-.8,2-.8h14.7Z"/>
    </g>
  </g>
  <g>
    <path class="cls-1" d="M196.3,99.9l15.8-31.5-15.8-31.5h19.7l7.9,15.8,7.9-15.8h19.7l-15.8,31.5,15.8,31.5h-19.7l-7.9-15.8-7.9,15.8h-19.7Z"/>
    <path class="cls-1" d="M278.2,99.9v-47.3h-19.7v-15.8h63l-15.8,15.8h-11.8v47.3h-15.8Z"/>
    <path class="cls-1" d="M366.2,99.9l-7.9-7.9v-47.3l7.9-7.9h47.3l-7.9,15.8h-31.5v31.5h39.4v15.8h-47.3Z"/>
    <path class="cls-1" d="M420.5,99.9v-63h15.8v47.3h39.4l-7.9,15.8h-47.3Z"/>
    <path class="cls-1" d="M490.6,99.9l-7.9-7.9v-55.2h15.8v47.3h23.6v-47.3h15.8v47.3l-7.9,15.8h-39.4Z"/>
    <path class="cls-1" d="M544.8,99.9v-63h47.3l7.9,7.9v15.8l-3.9,7.9,3.9,7.9v15.8l-7.9,7.9h-47.3ZM584.2,60.5v-7.9h-23.6v7.9h23.6ZM584.2,84.1v-7.9h-23.6v7.9h23.6Z"/>
  </g>
  <rect class="cls-2" x="196.3" y="114.8" width="403.7" height="18.2"/>
</svg>