<?xml version="1.0" encoding="UTF-8"?>
<svg id="Layer_1" data-name="Layer 1" xmlns="http://www.w3.org/2000/svg" version="1.1" viewBox="0 0 30 30">
  <defs>
    <style>
      .cls-1 {
        fill: #0040c2;
      }

      .cls-1, .cls-2 {
        stroke-width: 0px;
      }

      .cls-2 {
        fill: #fff;
        fill-rule: evenodd;
      }
    </style>
  </defs>
  <path class="cls-2" d="M15,0c8.3,0,15,6.7,15,15s-6.7,15-15,15S0,23.3,0,15,6.7,0,15,0h0Z"/>
  <g>
    <path class="cls-1" d="M19.1,19.4c.5-.3.6-.9.8-1.5,0-.2.2-.3.3-.4.5-.5,1.5-.5,1.9-1.1.3-.6-.2-1.5,0-2.2.2-.6,1.1-1.2,1.1-1.9s-.9-1.3-1.1-1.9c-.2-.7.3-1.6,0-2.2-.3-.6-1.4-.6-1.9-1.1-.5-.5-.5-1.5-1.1-1.9-.6-.3-1.5.2-2.2,0-.6-.2-1.2-1.1-1.9-1.1s-1.3.9-1.9,1.1c-.7.2-1.6-.3-2.2,0-.6.3-.6,1.4-1.1,1.9-.5.5-1.5.5-1.9,1.1-.3.6.1,1.5,0,2.2-.2.6-1.1,1.2-1.1,1.9s.9,1.3,1.1,1.9c.2.7-.3,1.6,0,2.2.3.6,1.4.6,1.9,1.1.1.1.2.3.3.4.3.5.4,1.2.8,1.5.6.3,1.5-.2,2.2,0,.2,0,.4.2.6.3.4.3.8.7,1.3.7s.9-.4,1.3-.7c.2-.1.4-.3.6-.3.7-.2,1.6.3,2.2,0ZM15,16.7c-2.4,0-4.4-2-4.4-4.4s2-4.4,4.4-4.4,4.4,2,4.4,4.4-2,4.4-4.4,4.4Z"/>
    <path class="cls-1" d="M12.9,20.1s-.1,0-.2,0c-.2,0-.4,0-.6,0-.2,0-.5,0-.8,0s-.6,0-.9-.2c-.5-.3-.7-.8-.9-1.2l-2.6,5.4,2.5-.4,1.2,2.2,2.7-5.5s0,0-.1,0c0,0-.2-.2-.4-.2h0Z"/>
    <path class="cls-1" d="M19.4,20c-.2.1-.5.2-.9.2s-.5,0-.8,0c-.2,0-.4,0-.6,0s-.1,0-.2,0c-.1,0-.3.2-.4.2,0,0,0,0-.1,0l2.7,5.5,1.2-2.2,2.4.4-2.6-5.4c-.2.4-.4,1-.9,1.2h0Z"/>
    <path class="cls-1" d="M15,8.5c-2.1,0-3.7,1.7-3.7,3.7s1.7,3.7,3.7,3.7,3.7-1.7,3.7-3.7c0-2.1-1.7-3.7-3.7-3.7ZM17.3,11h0s-2.6,3.1-2.6,3.1c0,0-.2.1-.3.1-.1,0-.2,0-.3-.1l-1.4-1.4c-.2-.2-.2-.4,0-.6,0,0,.2-.1.3-.1.1,0,.2,0,.3.1h0l1.1,1.1,2.3-2.7c0,0,.2-.1.3-.1h0s0,0,0,0c.1,0,.2,0,.3,0,.2.1.2.4,0,.6Z"/>
  </g>
</svg>