<?xml version="1.0" encoding="UTF-8"?>
<svg id="Layer_1" data-name="Layer 1" xmlns="http://www.w3.org/2000/svg" version="1.1" viewBox="0 0 30 30">
  <defs>
    <style>
      .cls-1 {
        fill: #fff;
      }

      .cls-1, .cls-2 {
        stroke-width: 0px;
      }

      .cls-2 {
        fill: #50af95;
      }
    </style>
  </defs>
  <circle class="cls-2" cx="15" cy="15" r="15"/>
  <path id="Path_10" data-name="Path 10" class="cls-1" d="M20.4,15.2c-.4-.6-1.1-1.2-1.8-1.5-.5-.2-1-.4-1.5-.5-.5-.1-1.2-.3-1.9-.4-.6,0-1.2-.3-1.8-.6-.3-.2-.4-.6-.4-.9,0-.9.7-1.3,2.1-1.3,1.2,0,2.3.6,2.6,1.7l2-.7,1-.3c0-.1,0-.2-.1-.4-.8-1.8-2.6-3-4.6-3v-1.8h-1.9v1.8c-1.2.1-2.4.6-3.2,1.5-.8.8-1.3,1.9-1.2,3.1,0,1,.3,1.9,1,2.7.9.8,1.9,1.3,3.1,1.5.4.1.8.2,1.3.3.7,0,1.4.3,2.1.7.3.2.5.6.5,1,0,.4-.2.8-.6,1.1-.5.3-1.2.5-1.8.4-1.4.2-2.7-.7-3.1-2h-.2s-3.1.7-3.1.7c.1.5.3,1,.6,1.4,1,1.6,2.7,2.5,4.6,2.6v2.2h1.9v-2.2c1.5,0,2.9-.6,3.9-1.7.8-.9,1.3-2,1.3-3.2,0-.8-.2-1.6-.7-2.3"/>
</svg>