<?xml version="1.0" encoding="UTF-8"?>
<svg id="Layer_1" data-name="Layer 1" xmlns="http://www.w3.org/2000/svg" version="1.1" viewBox="0 0 30 30">
  <defs>
    <style>
      .cls-1 {
        fill: #fff;
        fill-rule: evenodd;
      }

      .cls-1, .cls-2 {
        stroke-width: 0px;
      }

      .cls-2 {
        fill: #50af95;
      }
    </style>
  </defs>
  <circle class="cls-2" cx="15" cy="15" r="15"/>
  <path class="cls-1" d="M16.9,15.6h0c-.1,0-.7,0-1.9,0s-1.7,0-1.9,0h0c-3.8-.2-6.6-.8-6.6-1.6s2.8-1.4,6.6-1.6v2.6c.2,0,.9,0,1.9,0s1.8,0,1.9,0v-2.6c3.7.2,6.5.8,6.5,1.6s-2.8,1.4-6.5,1.6h0ZM16.9,12.2v-2.3h5.2v-3.5H7.9v3.5h5.2v2.3c-4.3.2-7.5,1-7.5,2s3.2,1.9,7.5,2v7.3h3.8v-7.3c4.2-.2,7.4-1,7.4-2s-3.2-1.8-7.4-2h0ZM16.9,12.2h0Z"/>
</svg>